<svg width="25px" height="25px" viewBox="0 0 22 22" version="1.1" xmlns="http://www.w3.org/2000/svg" xmlns:xlink="http://www.w3.org/1999/xlink">
    <desc>Loterias - Resultado e análise dos principais concursos</desc>
    <defs></defs>
    <g stroke="none" stroke-width="1" fill="none" fill-rule="evenodd">
        <g transform="translate(-43.000000, -59.000000)">
            <g transform="translate(1.000000, 48.000000)">
                <g transform="translate(42.000000, 11.000000)">
                    <g>
                        <path class='cor-escura' d="M14.6292617,0 C12.8788679,0 11.4509923,1.4636061 11.4509923,3.25813584 L11.4509923,3.2584091 L11.4509923,10.5354499 L18.8217306,10.5354499 L18.8625118,10.5354499 L18.8625118,10.5349034 C20.594514,10.5122224 22,9.05763402 22,7.27704079 C22,5.48223779 20.5723909,4.01890495 18.8217306,4.01890495 C18.411253,4.01890495 18.0183673,4.09869827 17.6574669,4.24516818 C17.7544888,3.93364635 17.8075311,3.60217618 17.8075311,3.2584091 C17.8075311,1.4636061 16.3796554,0 14.6292617,0 M7.37100487,22 C9.12113208,22 10.5487412,20.5363939 10.5490077,18.7418642 L10.5490077,18.7415909 L10.5490077,11.4645501 L3.1782694,11.4645501 L3.13748819,11.4645501 L3.13748819,11.4650966 C1.40548596,11.4877776 0,12.9420927 0,14.7226859 C0,16.5174889 1.4276091,17.9813683 3.1782694,17.9813683 C3.588747,17.9813683 3.9816327,17.9013017 4.34253314,17.7548318 C4.24551116,18.0663537 4.19246892,18.3978238 4.19246892,18.7415909 C4.19246892,20.5361206 5.62007802,22 7.37100487,22" id="Fill-1" fill="#019350"></path>
                        <path class='cor-clara' d="M14.7186657,22 C12.9895035,22 11.5789474,20.5525565 11.5789474,18.777242 L11.5789474,18.7769717 L11.5789474,11.5789474 L18.8602817,11.5789474 L18.9005682,11.5789474 L18.9005682,11.579488 C20.611562,11.6019227 22,13.0407166 22,14.8019756 C22,16.5772901 20.5897072,18.0250039 18.8602817,18.0250039 C18.454783,18.0250039 18.0666629,17.9458067 17.71014,17.8009272 C17.8059851,18.1090664 17.858384,18.4369374 17.858384,18.7769717 C17.858384,20.5522862 16.4478279,22 14.7186657,22 M10.4210526,3.22275796 L10.4210526,10.4210526 L3.13971831,10.4210526 L3.09943175,10.4210526 C1.38843799,10.3980773 0,8.95955365 0,7.19829467 C0,5.42298021 1.41029279,3.97526641 3.13971831,3.97526641 C3.54521699,3.97526641 3.93333715,4.0541933 4.28986001,4.1990728 C4.19401487,3.89093356 4.14161601,3.56306261 4.14161601,3.22329856 C4.14161601,1.4477138 5.5519088,0 7.28159763,0 C9.01049653,0 10.4207893,1.4477138 10.4210526,3.22275796 Z" id="Fill-4" fill="#7AC5A2"></path>
                    </g>
                </g>
            </g>
        </g>
    </g>
</svg>
